<svg width="277" height="276" viewBox="0 0 277 276" fill="none" xmlns="http://www.w3.org/2000/svg">
<path d="M166.802 260.662C168.274 267.085 164.262 273.54 157.735 274.451C141.202 276.759 124.353 276.05 108.013 272.323C87.7868 267.71 68.8622 258.593 52.6491 245.65C36.4359 232.707 23.3522 216.273 14.3726 197.571C5.39306 178.87 0.7491 158.383 0.786726 137.638C0.824352 116.892 5.54259 96.4223 14.5899 77.7535C23.6373 59.0847 36.7805 42.6979 53.0405 29.8141C69.3005 16.9303 88.258 7.88149 108.501 3.34184C124.854 -0.325564 141.706 -0.973766 158.23 1.39383C164.754 2.32851 168.743 8.79804 167.248 15.2164L160.037 46.174C158.542 52.5923 152.12 56.4909 145.553 55.9396C137.246 55.2424 128.858 55.8103 120.679 57.6445C108.606 60.352 97.2997 65.7487 87.6023 73.4326C77.9048 81.1165 70.0662 90.8895 64.6703 102.024C59.2745 113.158 56.4605 125.366 56.4381 137.738C56.4156 150.111 59.1853 162.329 64.5407 173.483C69.8961 184.637 77.6993 194.438 87.3688 202.157C97.0383 209.876 108.325 215.314 120.388 218.065C128.56 219.929 136.946 220.527 145.256 219.86C151.825 219.333 158.232 223.254 159.704 229.678L166.802 260.662Z" fill="white"/>
<path d="M204.67 30.6063C208.123 24.9932 215.509 23.2015 220.803 27.1268C230.977 34.671 240.064 43.5817 247.806 53.6064C251.834 58.8222 250.187 66.242 244.643 69.8042L217.901 86.9859C212.356 90.5481 205.033 88.8701 200.707 83.899C197.862 80.6298 194.762 77.5906 191.438 74.8099C186.383 70.5816 184.562 63.2932 188.015 57.68L204.67 30.6063Z" fill="#1DD3B0"/>
<path d="M261.252 108.916C267.666 107.4 274.148 111.367 275.104 117.888C276.941 130.42 277.043 143.147 275.406 155.707C274.554 162.242 268.136 166.312 261.699 164.899L230.652 158.082C224.215 156.669 220.236 150.297 220.703 143.724C221.011 139.401 220.976 135.06 220.6 130.743C220.027 124.177 223.905 117.743 230.318 116.227L261.252 108.916Z" fill="#446DF6"/>
<path d="M245.4 204.779C250.984 208.278 252.714 215.679 248.744 220.94C241.115 231.051 232.129 240.063 222.04 247.721C216.79 251.705 209.385 249.996 205.869 244.422L188.912 217.537C185.396 211.963 187.135 204.654 192.142 200.37C195.435 197.552 198.5 194.478 201.309 191.177C205.579 186.158 212.883 184.398 218.467 187.898L245.4 204.779Z" fill="#FF4242"/>
</svg>