<svg width="41" height="40" viewBox="0 0 41 40" fill="none" xmlns="http://www.w3.org/2000/svg">
<path d="M34.1428 34.1508C34.783 33.5107 35.3751 32.8306 35.9112 32.1264C36.4873 31.3743 36.2953 30.2861 35.4871 29.79L31.6223 27.4215C30.9502 27.0054 30.062 27.1414 29.5659 27.7576C29.3019 28.0856 29.0138 28.4057 28.7098 28.7098C28.4057 29.0138 28.0856 29.3019 27.7576 29.5659C27.1414 30.062 27.0054 30.9502 27.4215 31.6223L29.79 35.4871C30.2861 36.2953 31.3743 36.4873 32.1264 35.9112C32.8226 35.3831 33.5027 34.791 34.1428 34.1508Z" fill="#446DF6"/>
<path d="M40.008 19.996C40.008 20.9082 39.944 21.8043 39.832 22.6765C39.704 23.6207 38.7998 24.2448 37.8796 24.0288L33.4707 22.9726C32.7026 22.7885 32.1744 22.0684 32.2545 21.2762C32.2945 20.8522 32.3185 20.4281 32.3185 19.996C32.3185 19.5639 32.2945 19.1318 32.2545 18.7157C32.1744 17.9316 32.7026 17.2034 33.4707 17.0194L37.8796 15.9632C38.7998 15.7391 39.704 16.3713 39.832 17.3155C39.944 18.1876 40.008 19.0838 40.008 19.996Z" fill="#1DD3B0"/>
<path d="M34.1428 5.84115C34.783 6.48128 35.3751 7.16141 35.9112 7.86555C36.4873 8.6177 36.2953 9.70592 35.4871 10.202L31.6223 12.5705C30.9502 12.9866 30.062 12.8505 29.5659 12.2344C29.3019 11.9064 29.0138 11.5863 28.7098 11.2822C28.4057 10.9782 28.0856 10.6901 27.7576 10.4261C27.1414 9.92996 27.0054 9.04179 27.4215 8.36965L29.79 4.50488C30.2861 3.69672 31.3743 3.50468 32.1264 4.08079C32.8226 4.6089 33.5027 5.20102 34.1428 5.84115Z" fill="#FF4242"/>
<path d="M22.9726 33.4627C22.7966 32.7425 22.1484 32.2224 21.4203 32.2304H21.4123C21.3723 32.2304 21.3243 32.2304 21.2763 32.2384C21.0682 32.2625 20.8602 32.2785 20.6521 32.2945C20.6521 32.2945 20.6441 32.2945 20.6361 32.2945C20.4281 32.3025 20.212 32.3105 19.996 32.3105C17.8196 32.3105 15.7712 31.7423 13.9948 30.7502C13.9068 30.7021 13.8188 30.6541 13.7387 30.6061C13.6507 30.5581 13.5707 30.5021 13.4827 30.4541C13.4027 30.3981 13.3147 30.3501 13.2346 30.2941C13.1546 30.238 13.0746 30.182 12.9866 30.126C12.8506 30.03 12.7145 29.934 12.5785 29.83C12.4905 29.766 12.4025 29.6939 12.3145 29.6299C12.1864 29.5259 12.0584 29.4219 11.9304 29.3099C11.8584 29.2458 11.7784 29.1818 11.7063 29.1098C11.6743 29.0778 11.6343 29.0458 11.5943 29.0138C11.4903 28.9098 11.3783 28.8138 11.2743 28.7097C9.04181 26.4773 7.66553 23.4047 7.66553 20.004C7.66553 19.6679 7.68154 19.3319 7.70554 18.9958C8.17763 13.0986 12.8666 8.35367 18.7157 7.75355C19.1318 7.71354 19.5559 7.68954 19.98 7.68954C20.4121 7.68954 20.8442 7.71354 21.2603 7.75355C22.0444 7.83357 22.7726 7.30546 22.9566 6.53731L24.0128 2.12843C24.2368 1.20824 23.6047 0.304059 22.6605 0.176034C22.3325 0.128024 22.0044 0.0960187 21.6683 0.0720139C21.5323 0.0640123 21.3963 0.0480096 21.2603 0.040008C21.1722 0.0320064 21.0842 0.0320054 20.9962 0.0240038C20.6601 0.00800062 20.3161 0 19.98 0C19.868 0 19.756 0 19.6439 0C19.5479 0 19.4439 4.8826e-07 19.3479 0.00800209C19.3239 0.00800209 19.2999 0.00800209 19.2759 0.00800209C19.1958 0.00800209 19.1078 0.0160017 19.0278 0.0160017C18.9158 0.0240033 18.8038 0.0240043 18.6997 0.0320059C18.6437 0.0320059 18.5877 0.040008 18.5317 0.040008C18.4677 0.040008 18.4037 0.0480081 18.3397 0.0560097C18.3237 0.0560097 18.2997 0.0560102 18.2837 0.0640118C18.1876 0.0720134 18.0916 0.0800165 18.0036 0.0880181C17.8596 0.104021 17.7235 0.120023 17.5795 0.136026C17.5075 0.144027 17.4435 0.15203 17.3715 0.160032C17.3555 0.160032 17.3315 0.168034 17.3155 0.168034C17.3075 0.168034 17.2995 0.168034 17.2995 0.168034C7.52951 1.4963 0 9.86597 0 19.996C0 30.094 7.4815 38.4477 17.2034 39.808C17.2354 39.816 17.2755 39.824 17.3075 39.824C18.1876 39.944 19.0838 40 19.988 40C20.8922 40 21.7884 39.936 22.6685 39.824C22.6765 39.824 22.6845 39.824 22.7005 39.816C22.7165 39.816 22.7325 39.808 22.7405 39.808C23.6367 39.6479 24.2288 38.7677 24.0128 37.8636L22.9726 33.4627Z" fill="white"/>
</svg>